<svg id="EM21" xmlns="http://www.w3.org/2000/svg" width="32" height="32" viewBox="0 0 32 32">
  <circle id="Ellipse_154" data-name="Ellipse 154" cx="16" cy="16" r="16" fill="#00edff"/>
  <path id="Path_10588" data-name="Path 10588" d="M23.16,4.89a26.35,26.35,0,0,0-14.31,0,1.4,1.4,0,0,0-1,1.25V25.21a1.41,1.41,0,0,0,1,1.25,26.2,26.2,0,0,0,14.32,0,1.4,1.4,0,0,0,1-1.25V6.14a1.39,1.39,0,0,0-1.01-1.25ZM15.78,26.73A1.22,1.22,0,1,1,17,25.51,1.22,1.22,0,0,1,15.78,26.73Zm6.72-3.88a.57.57,0,0,1-.58.58H10.08a.57.57,0,0,1-.58-.58V7.26a.58.58,0,0,1,.58-.58H21.93a.57.57,0,0,1,.58.58V22.85Z" fill="#004584"/>
  <path id="Path_10589" data-name="Path 10589" d="M22.5,22.85a.57.57,0,0,1-.58.58H10.08a.57.57,0,0,1-.58-.58V7.26a.58.58,0,0,1,.58-.58H21.93a.57.57,0,0,1,.58.58V22.85Z" fill="#fff"/>
  <path id="Path_10590" data-name="Path 10590" d="M28.84,9.77h0a1.38,1.38,0,0,0-2,.09l-.05.06L23,14.45l-.78.91L19.5,18.52a.45.45,0,0,0-.11.31l.11,1.41a.43.43,0,0,0,.46.4l1.4-.11h0a.43.43,0,0,0,.29-.15l.9-1.05.78-.91L29,11.78a1.42,1.42,0,0,0-.16-2.01Z" fill="#004584"/>
  <path id="Path_10591" data-name="Path 10591" d="M11.29,21.38a.49.49,0,0,1-.3-.14.42.42,0,0,1-.13-.32.37.37,0,0,1,0-.18c1.2-2.68,1.81-3.23,2.35-3.23a.62.62,0,0,1,.19,0c.56.13.68.79.82,1.48a3.62,3.62,0,0,0,.31,1.1l.08.18.18-.07.29-.15a2.85,2.85,0,0,1,1.47-.45,2.92,2.92,0,0,1,1.47.42.46.46,0,0,1-.23.86.4.4,0,0,1-.22-.06,1.83,1.83,0,0,0-2,0,1.41,1.41,0,0,1-.83.28,1.27,1.27,0,0,1-.28,0c-.77-.22-.95-1.17-1.1-1.93a2.56,2.56,0,0,0,0-.27l-.1-.49-.27.42a14.07,14.07,0,0,0-1.2,2.27.47.47,0,0,1-.41.26Z" fill="#004584"/>
  <circle id="Ellipse_155" data-name="Ellipse 155" cx="1.22" cy="1.22" r="1.22" transform="translate(14.56 24.29)" fill="#fff"/>
</svg>
