<svg xmlns="http://www.w3.org/2000/svg" width="18.208" height="17.671" viewBox="0 0 18.208 17.671">
  <g id="icon-Computer_info" data-name="icon-Computer info" transform="translate(0 0)">
    <path id="Path_11009" data-name="Path 11009" d="M26.893,64.158H15.333a.477.477,0,1,0,0,.954h11.56a.477.477,0,1,0,0-.954" transform="translate(-12.023 -51.922)" fill="#5c5c5c"/>
    <path id="Path_11010" data-name="Path 11010" d="M16.792,7.158H14.958a7.034,7.034,0,0,1,.555.954h1.279a.463.463,0,0,1,.462.462V18.966a.463.463,0,0,1-.462.462H1.416a.463.463,0,0,1-.462-.462V8.574a.463.463,0,0,1,.462-.462H2.785a7.053,7.053,0,0,1,.555-.954H1.416A1.418,1.418,0,0,0,0,8.574V18.966a1.418,1.418,0,0,0,1.416,1.416H7.205L6.581,22.51H5.117a.477.477,0,1,0,0,.954h7.974a.477.477,0,1,0,0-.954H11.627L11,20.382h5.789a1.418,1.418,0,0,0,1.416-1.416V8.574a1.418,1.418,0,0,0-1.416-1.416M7.575,22.51l.587-2h1.885l.587,2Z" transform="translate(0 -5.793)" fill="#5c5c5c"/>
    <path id="Path_11011" data-name="Path 11011" d="M25.028,0A5.37,5.37,0,1,0,30.4,5.37,5.37,5.37,0,0,0,25.028,0m.806,7.876a.806.806,0,0,1-1.611,0V5.37a.806.806,0,0,1,1.611,0Zm-.806-4.117a.895.895,0,1,1,.895-.895.895.895,0,0,1-.895.895" transform="translate(-15.909 0)" fill="#5c5c5c"/>
  </g>
</svg>
