<svg xmlns="http://www.w3.org/2000/svg" width="15" height="15" viewBox="0 0 15 15">
  <g id="bullet_icon" data-name="bullet icon" transform="translate(-635 -307)">
    <g id="Path_232" data-name="Path 232" transform="translate(632 304)" fill="none" stroke-linecap="round" stroke-linejoin="round">
      <path d="M18,10.5A7.5,7.5,0,1,1,10.5,3,7.5,7.5,0,0,1,18,10.5Z" stroke="none"/>
      <path d="M 10.5 4.200000762939453 C 7.026169776916504 4.200000762939453 4.200000762939453 7.02617073059082 4.200000762939453 10.50000095367432 C 4.200000762939453 13.97383117675781 7.026169776916504 16.80000114440918 10.5 16.80000114440918 C 13.9738302230835 16.80000114440918 16.79999923706055 13.97383117675781 16.79999923706055 10.50000095367432 C 16.79999923706055 7.02617073059082 13.9738302230835 4.200000762939453 10.5 4.200000762939453 M 10.5 3.000001907348633 C 14.64213943481445 3.000001907348633 18 6.357871055603027 18 10.50000095367432 C 18 14.64214134216309 14.64213943481445 18 10.5 18 C 6.35785961151123 18 3 14.64214134216309 3 10.50000095367432 C 3 6.357871055603027 6.357870101928711 3.000001907348633 10.5 3.000001907348633 Z" stroke="none" fill="#FB8500"/>
    </g>
    <g id="Group_308" data-name="Group 308" transform="translate(639.004 311.5)">
      <path id="Path_233" data-name="Path 233" d="M18,18l3-3-3-3" transform="translate(-15 -12)" fill="none" stroke="#FB8500" stroke-linecap="round" stroke-linejoin="round" stroke-width="1.2"/>
      <path id="Path_234" data-name="Path 234" d="M12,18h6" transform="translate(-12 -15)" fill="none" stroke="#FB8500" stroke-linecap="round" stroke-linejoin="round" stroke-width="1.2"/>
    </g>
  </g>
</svg>
