<?xml version="1.0" encoding="iso-8859-1"?>
<!-- Uploaded to: SVG Repo, www.svgrepo.com, Generator: SVG Repo Mixer Tools -->
<svg height="800px" width="800px" version="1.1" id="Layer_1" xmlns="http://www.w3.org/2000/svg" xmlns:xlink="http://www.w3.org/1999/xlink" 
	 viewBox="0 0 512 512" xml:space="preserve">
<path style="fill:#007AB3;" d="M495.304,0H16.696C7.479,0,0,7.479,0,16.696s7.479,16.696,16.696,16.696h222.609V128
	c0,9.217,7.479,16.696,16.696,16.696s16.696-7.479,16.696-16.696V33.391h222.609c9.217,0,16.696-7.479,16.696-16.696
	S504.521,0,495.304,0z"/>
<path style="fill:#005E80;" d="M495.304,0H256v144.696c9.217,0,16.696-7.479,16.696-16.696V33.391h222.609
	c9.217,0,16.696-7.479,16.696-16.696S504.521,0,495.304,0z"/>
<path style="fill:#FF5600;" d="M389.565,111.304h-267.13c-40.326,0-74.051,28.728-81.798,66.783h0.545l33.391,33.391h362.852
	l33.391-33.391h0.546C463.609,140.026,429.884,111.304,389.565,111.304z"/>
<path style="fill:#D94700;" d="M389.565,111.304H256v100.174h181.426l33.391-33.391h0.546
	C463.609,140.026,429.884,111.304,389.565,111.304z"/>
<path style="fill:#E6F3FF;" d="M38.957,428.522v-116.87h166.957v100.174h100.174V311.652h166.957v116.87
	c0,46.103-37.375,83.478-83.478,83.478h-267.13C76.331,512,38.957,474.625,38.957,428.522z"/>
<path style="fill:#CFDBE6;" d="M256,411.826h50.087V311.652h166.957v116.87c0,46.104-37.375,83.478-83.478,83.478H256V411.826z"/>
<path style="fill:#73C0E6;" d="M471.363,178.087h-148.58c-9.216,0-16.696,7.48-16.696,16.696v116.87h166.957v-116.87
	C473.043,189.073,472.465,183.485,471.363,178.087z"/>
<g>
	<path style="fill:#99DDFF;" d="M189.217,178.087H40.637c-1.102,5.398-1.681,10.986-1.681,16.696v116.87h166.957v-116.87
		C205.913,185.567,198.433,178.087,189.217,178.087z"/>
	<path style="fill:#99DDFF;" d="M172.522,178.087c0,138.317,0,108.345,0,250.435c0,9.22,7.475,16.696,16.696,16.696h133.565
		c9.22,0,16.696-7.475,16.696-16.696c0-141.886,0-111.913,0-250.435H172.522z"/>
</g>
<path style="fill:#B3E6FF;" d="M256,178.087h-83.478c0,138.317,0,108.345,0,250.435c0,9.22,7.475,16.696,16.696,16.696H256V178.087z
	"/>
<path style="fill:#F28D00;" d="M139.13,361.739c0,9.238-7.456,16.696-16.696,16.696H38.957v-33.391h83.478
	C131.674,345.043,139.13,352.501,139.13,361.739z"/>
<path style="fill:#D86C00;" d="M473.043,345.043v33.391h-83.478c-9.239,0-16.696-7.457-16.696-16.696s7.456-16.696,16.696-16.696
	H473.043z"/>
</svg>