<?xml version="1.0" encoding="iso-8859-1"?>
<!-- Uploaded to: SVG Repo, www.svgrepo.com, Generator: SVG Repo Mixer Tools -->
<svg height="800px" width="800px" version="1.1" id="Layer_1" xmlns="http://www.w3.org/2000/svg" xmlns:xlink="http://www.w3.org/1999/xlink" 
	 viewBox="0 0 512.003 512.003" xml:space="preserve">
<path style="fill:#E65C64;" d="M450.869,155.878c-25.359,0-49.161-9.846-67.037-27.729c-33.51-33.51-36.64-86.079-9.392-123.156
	c4.536-6.172,13.66-6.664,19.075-1.248l114.735,114.735c5.399,5.399,4.943,14.495-1.201,19.027
	C490.884,149.436,471.381,155.878,450.869,155.878z"/>
<path style="fill:#D9575F;" d="M383.84,128.157c17.876,17.878,41.676,27.721,67.029,27.721c20.512,0,40.014-6.442,56.18-18.369
	c6.144-4.533,6.599-13.629,1.201-19.027l-57.367-57.367L383.84,128.157z"/>
<path style="fill:#E65C64;" d="M61.132,356.125c25.359,0,49.161,9.846,67.037,27.729c33.51,33.51,36.64,86.079,9.392,123.156
	c-4.536,6.172-13.66,6.664-19.075,1.248L3.752,393.521c-5.399-5.399-4.943-14.495,1.201-19.027
	C21.118,362.567,40.621,356.125,61.132,356.125z"/>
<path style="fill:#D9575F;" d="M61.113,450.884l57.372,57.372c5.416,5.416,14.54,4.924,19.075-1.248
	c27.249-37.076,24.117-89.646-9.392-123.156c-0.004-0.004-0.009-0.008-0.013-0.013L61.113,450.884z"/>
<path style="fill:#F26D76;" d="M79.777,142.264c-7.518,10.896-13.899,22.429-19.167,34.463
	c-11.399,26.049-17.541,54.371-17.541,83.7c0,55.771,21.667,108.155,61.013,147.494c39.333,39.339,91.716,61.006,147.494,61.006
	c29.328,0,57.651-6.14,83.7-17.541c12.034-5.267,23.568-11.648,34.463-19.167L79.777,142.264z"/>
<path style="fill:#E65C64;" d="M104.08,407.918l0.003,0.003c39.333,39.339,91.716,61.006,147.494,61.006
	c29.328,0,57.651-6.14,83.7-17.539c12.034-5.267,23.568-11.648,34.463-19.167L224.756,287.241L104.08,407.918z"/>
<path style="fill:#F26D76;" d="M399.07,112.927C336.681,50.534,244.326,36.198,167.954,69.54
	C156,74.758,144.449,81.11,133.46,88.673l289.913,289.913c7.518-10.896,13.901-22.429,19.167-34.462
	c11.403-26.049,17.543-54.372,17.543-83.699C460.083,204.65,438.416,152.266,399.07,112.927z"/>
<path style="fill:#E65C64;" d="M423.373,378.587c7.518-10.896,13.901-22.429,19.167-34.462
	c11.403-26.049,17.543-54.372,17.543-83.699c0-55.778-21.667-108.161-61.013-147.5L278.391,233.605L423.373,378.587z"/>
<path style="fill:#FFC033;" d="M167.954,69.54C156,74.758,144.449,81.11,133.46,88.673c-10.318,7.101-20.209,15.084-29.376,24.254
	c-9.1,9.098-17.145,18.962-24.305,29.337c-7.518,10.896-13.899,22.429-19.167,34.463l274.667,274.66
	c12.034-5.267,23.568-11.648,34.463-19.167c10.374-7.158,20.235-15.202,29.331-24.299c9.098-9.098,17.143-18.96,24.303-29.334
	c7.518-10.896,13.901-22.429,19.167-34.462L167.954,69.54z"/>
<path style="fill:#F9A926;" d="M442.539,344.126L305.206,206.791L197.942,314.055l137.335,137.331
	c12.034-5.267,23.568-11.648,34.463-19.167c10.374-7.158,20.235-15.202,29.331-24.299c9.098-9.098,17.143-18.96,24.303-29.334
	C430.891,367.691,437.274,356.157,442.539,344.126z"/>
</svg>