<?xml version="1.0" encoding="iso-8859-1"?>
<!-- Uploaded to: SVG Repo, www.svgrepo.com, Generator: SVG Repo Mixer Tools -->
<svg height="800px" width="800px" version="1.1" id="Layer_1" xmlns="http://www.w3.org/2000/svg" xmlns:xlink="http://www.w3.org/1999/xlink" 
	 viewBox="0 0 501.29 501.29" xml:space="preserve">
<path style="fill:#F2F2F2;" d="M491.886,461.584c12.539-12.539,12.539-33.437,0-45.976c-10.449-10.449-27.167-12.539-39.706-4.18
	l-84.637-84.637l-40.751,40.751l84.637,84.637c-7.314,12.539-6.269,29.257,4.18,39.706c12.539,12.539,33.437,12.539,45.976,0
	c6.269-6.269,8.359-13.584,9.404-20.898C478.302,469.943,485.616,467.853,491.886,461.584z"/>
<path style="fill:#FFD15C;" d="M386.351,334.106L386.351,334.106c-4.18-4.18-5.224-9.404-4.18-15.673
	c17.763-81.502-45.976-217.339-99.265-270.629c-64.784-63.739-170.318-63.739-235.102,0c-63.739,64.784-63.739,170.318,0,235.102
	c53.29,53.29,189.127,117.029,270.629,99.265c5.224-1.045,11.494,0,14.629,4.18l0,0c6.269,6.269,16.718,6.269,21.943,0
	l30.302-30.302C391.576,350.824,391.576,340.376,386.351,334.106z"/>
<g>
	<ellipse style="fill:#FFFFFF;" cx="149.54" cy="146.933" rx="10.449" ry="10.449"/>
	<ellipse style="fill:#FFFFFF;" cx="109.272" cy="193.215" rx="10.449" ry="10.449"/>
	<ellipse style="fill:#FFFFFF;" cx="150.986" cy="82.511" rx="10.449" ry="10.449"/>
	<ellipse style="fill:#FFFFFF;" cx="189.709" cy="71.62" rx="16.719" ry="16.719"/>
	<ellipse style="fill:#FFFFFF;" cx="95.116" cy="90.257" rx="10.449" ry="10.449"/>
	<ellipse style="fill:#FFFFFF;" cx="59.756" cy="155.362" rx="16.719" ry="16.719"/>
	<ellipse style="fill:#FFFFFF;" cx="128.097" cy="121.689" rx="7.315" ry="7.315"/>
	<ellipse style="fill:#FFFFFF;" cx="169.627" cy="105.034" rx="7.315" ry="7.315"/>
	<ellipse style="fill:#FFFFFF;" cx="100.651" cy="133.695" rx="7.315" ry="7.315"/>
	<ellipse style="fill:#FFFFFF;" cx="145.265" cy="46.148" rx="7.314" ry="7.314"/>
</g>
</svg>