<?xml version="1.0" encoding="iso-8859-1"?>
<!-- Uploaded to: SVG Repo, www.svgrepo.com, Generator: SVG Repo Mixer Tools -->
<svg version="1.1" id="Layer_1" xmlns="http://www.w3.org/2000/svg" xmlns:xlink="http://www.w3.org/1999/xlink" 
	 viewBox="0 0 512 512" xml:space="preserve">
<polygon style="fill:#424242;" points="255.999,109.533 235.1,193.394 296.848,172.495 "/>
<polygon style="fill:#707070;" points="215.15,172.495 255.999,193.394 255.999,109.533 "/>
<path style="fill:#FFBA00;" d="M296.848,172.495h-40.849L235.1,289.387c60.398,0,109.776-42.862,109.778-42.863l0,0L296.848,172.495
	z"/>
<path style="fill:#FDE09C;" d="M215.15,172.495l-48.03,74.03l0,0c0.001,0.001,28.481,42.863,88.879,42.863V172.495H215.15z"/>
<path style="fill:#424242;" d="M285.625,266.588c-8.852,1.176-18.71,1.9-29.626,1.9L235.1,389.293l20.899,122.706h29.626
	l20.899-122.706L285.625,266.588z"/>
<path style="fill:#FF8E00;" d="M344.877,246.524c-0.001,0.001-19.132,14.735-59.253,20.063v245.412h59.253V246.524z"/>
<path style="fill:#707070;" d="M226.373,266.588l-20.899,122.706L226.373,512h29.626V268.488
	C245.082,268.488,235.224,267.764,226.373,266.588z"/>
<path style="fill:#FFBA00;" d="M167.12,246.524v265.475h59.253V266.588C186.252,261.259,167.121,246.525,167.12,246.524z"/>
<g>
	<polygon style="fill:#003DA8;" points="271.673,0 255.999,0 245.55,29.546 255.999,59.091 271.673,59.091 	"/>
	
		<rect x="310.673" y="29.136" transform="matrix(-0.7071 -0.7071 0.7071 -0.7071 515.6158 330.9375)" style="fill:#003DA8;" width="31.348" height="59.091"/>
</g>
<rect x="126.96" y="113.366" style="fill:#2F91ED;" width="59.092" height="31.348"/>
<rect x="325.949" y="113.366" style="fill:#003DA8;" width="59.092" height="31.348"/>
<g>
	
		<rect x="156.105" y="43.008" transform="matrix(-0.7071 -0.7071 0.7071 -0.7071 275.4308 231.4505)" style="fill:#2F91ED;" width="59.091" height="31.348"/>
	<rect x="240.326" style="fill:#2F91ED;" width="15.674" height="59.092"/>
</g>
</svg>