<svg id="icon-question" xmlns="http://www.w3.org/2000/svg" xmlns:xlink="http://www.w3.org/1999/xlink" width="14" height="14" viewBox="0 0 14 14">
  <defs>
    <clipPath id="clip-path">
      <rect id="Rectangle_143440" data-name="Rectangle 143440" width="14" height="14" fill="none"/>
    </clipPath>
  </defs>
  <g id="Group_159253" data-name="Group 159253" clip-path="url(#clip-path)">
    <path id="Path_11204" data-name="Path 11204" d="M7,0A7,7,0,1,1,0,7,7,7,0,0,1,7,0" transform="translate(0 0)" fill="#fff"/>
    <path id="Path_11205" data-name="Path 11205" d="M7,14a7,7,0,1,1,7-7,7.009,7.009,0,0,1-7,7M7,1a6,6,0,1,0,6,6A6.006,6.006,0,0,0,7,1" transform="translate(0 0)" fill="#777b95"/>
    <path id="Path_11206" data-name="Path 11206" d="M6.844,9.27a.94.94,0,1,0,.941.939.94.94,0,0,0-.941-.939m.179-6.417H7.006A3.1,3.1,0,0,0,4.271,4.3a.17.17,0,0,0,.028.234l.742.561a.159.159,0,0,0,.224-.027,1.9,1.9,0,0,1,1.616-.944c.7,0,1.436.443,1.436,1.1,0,.554-.471.817-.97,1.1-.626.35-1.286.719-1.286,1.61V8.1a.161.161,0,0,0,.162.162H7.467A.161.161,0,0,0,7.629,8.1V8c0-.421.4-.65.815-.892A2.043,2.043,0,0,0,9.782,5.243a2.712,2.712,0,0,0-2.759-2.39" transform="translate(0 0)" fill="#777b95"/>
  </g>
</svg>
