<?xml version="1.0" encoding="iso-8859-1"?>
<!-- Uploaded to: SVG Repo, www.svgrepo.com, Generator: SVG Repo Mixer Tools -->
<svg height="800px" width="800px" version="1.1" id="Layer_1" xmlns="http://www.w3.org/2000/svg" xmlns:xlink="http://www.w3.org/1999/xlink" 
	 viewBox="0 0 280 280" xml:space="preserve">
<g id="XMLID_904_">
	<g id="XMLID_905_">
		<path id="XMLID_906_" style="fill:#FF9811;" d="M137.333,218v32c-16.568,0-30,13.432-30,30h60v-62H137.333z"/>
	</g>
	<g id="XMLID_907_">
		<path id="XMLID_908_" style="fill:#FF9811;" d="M72.333,50H42.667c-16.568,0-30,13.432-30,30h59.666V50z"/>
	</g>
	<path id="XMLID_909_" style="fill:#9DD7F5;" d="M177.333,110h-10V55c0-30.375-24.624-55-55-55c-30.375,0-55,24.625-55,55v55v25
		c0,8.629,0,18.929,0,30c0,30.376,24.624,55,55,55h125c0,0,0-24.624,0-55S207.709,110,177.333,110z"/>
	<g id="XMLID_910_">
		<path id="XMLID_911_" style="fill:#78B9EB;" d="M177.333,110h-10v110h70c0,0,0-24.624,0-55S207.709,110,177.333,110z"/>
	</g>
	<g id="XMLID_912_">
		<circle id="XMLID_913_" style="fill:#001B3C;" cx="107.333" cy="60" r="10"/>
	</g>
	<g id="XMLID_914_">
		<path id="XMLID_915_" style="fill:#006DF0;" d="M267.333,110c0,38.66-31.34,70-70,70l0,0c-38.66,0-70-31.34-70-70l0,0
			C167.333,110,187.333,110,267.333,110L267.333,110z"/>
	</g>
</g>
</svg>