<?xml version="1.0" encoding="iso-8859-1"?>
<!-- Uploaded to: SVG Repo, www.svgrepo.com, Generator: SVG Repo Mixer Tools -->
<svg height="800px" width="800px" version="1.1" id="Layer_1" xmlns="http://www.w3.org/2000/svg" xmlns:xlink="http://www.w3.org/1999/xlink" 
	 viewBox="0 0 499.471 499.471" xml:space="preserve">
<ellipse style="fill:#F8B64C;" cx="188.082" cy="157.784" rx="188.082" ry="83.592"/>
<path style="fill:#FFD15C;" d="M376.163,157.784c0-45.976-84.637-83.592-188.082-83.592C83.592,74.193,0,111.809,0,157.784
	c0,18.808,14.629,36.571,39.706,51.2v234.057c0,18.808,15.673,34.482,34.482,34.482H303.02c18.808,0,34.482-15.673,34.482-34.482
	V208.984C361.535,194.356,376.163,176.593,376.163,157.784z"/>
<path style="fill:#F8B64C;" d="M311.38,21.948c-57.469,0-108.669,11.494-143.151,29.257c-11.494,4.18-52.245,20.898-61.649,26.122
	c-11.494,4.18-20.898,8.359-30.302,12.539c31.347-10.449,70.008-16.718,111.804-16.718c104.49,0,188.082,37.616,188.082,83.592
	c0,18.808-14.629,36.571-39.706,51.2v1.045c9.404-3.135,17.763-7.314,25.078-10.449c11.494-4.18,52.245-20.898,61.649-26.122
	c45.976-15.673,76.278-39.706,76.278-67.918C500.506,59.564,415.869,21.948,311.38,21.948z"/>
<path style="fill:#F1543F;" d="M315.559,474.388L315.559,474.388L315.559,474.388z"/>
<path style="fill:#F8B64C;" d="M424.229,173.458c-9.404,5.224-50.155,21.943-61.649,26.122c-7.314,4.18-15.673,7.314-25.078,10.449
	v233.012c0,14.629-8.359,26.122-20.898,31.347l121.208-58.514c11.494-6.269,19.853-17.763,19.853-31.347V158.829
	C447.216,164.054,436.767,169.278,424.229,173.458z"/>
<g>
	<circle style="fill:#FFFFFF;" cx="188.082" cy="153.605" r="10.449"/>
	<circle style="fill:#FFFFFF;" cx="112.849" cy="259.139" r="10.449"/>
	<circle style="fill:#FFFFFF;" cx="132.702" cy="400.201" r="24.033"/>
	<circle style="fill:#FFFFFF;" cx="273.763" cy="259.139" r="24.033"/>
	<circle style="fill:#FFFFFF;" cx="283.167" cy="400.201" r="10.449"/>
</g>
</svg>