<?xml version="1.0" encoding="iso-8859-1"?>
<!-- Uploaded to: SVG Repo, www.svgrepo.com, Generator: SVG Repo Mixer Tools -->
<svg version="1.1" id="Layer_1" xmlns="http://www.w3.org/2000/svg" xmlns:xlink="http://www.w3.org/1999/xlink" 
	 viewBox="0 0 512 512" xml:space="preserve">
<path style="fill:#DD512A;" d="M407.703,0H256H104.296C88.587,0,75.852,12.736,75.852,28.444v170.667v170.667
	c0,15.709,12.736,28.444,28.444,28.444h26.144h40.226h40.226H256h45.107h40.226h40.226h26.144c15.709,0,28.444-12.736,28.444-28.444
	V199.111V28.444C436.148,12.736,423.412,0,407.703,0z M199.111,312.889c-15.709,0-28.444-12.736-28.444-28.444
	c0-15.711,12.736-28.444,28.444-28.444s28.444,12.734,28.444,28.444C227.555,300.153,214.82,312.889,199.111,312.889z
	 M312.889,312.889c-15.709,0-28.444-12.736-28.444-28.444c0-15.711,12.736-28.444,28.444-28.444
	c15.709,0,28.444,12.734,28.444,28.444C341.333,300.153,328.598,312.889,312.889,312.889z M379.259,170.667H256H132.741V56.889H256
	h123.259V170.667z"/>
<path style="fill:#898890;" d="M65.221,503.668C70.773,509.224,78.053,512,85.333,512s14.56-2.776,20.114-8.332l105.445-105.445
	h-40.226H130.44l-65.219,65.221C54.111,474.55,54.111,492.561,65.221,503.668z"/>
<path style="fill:#ACABB1;" d="M301.107,398.222l105.445,105.445c5.554,5.556,12.834,8.332,20.114,8.332
	c7.28,0,14.56-2.776,20.114-8.332c11.109-11.107,11.109-29.118,0-40.226l-65.221-65.219h-40.226H301.107z"/>
<g>
	<rect x="256" y="56.889" style="fill:#FFFFFF;" width="123.259" height="113.778"/>
	<rect x="132.741" y="56.889" style="fill:#FFFFFF;" width="123.259" height="113.778"/>
</g>
<circle style="fill:#B3D8F4;" cx="199.111" cy="284.444" r="28.444"/>
<circle style="fill:#BDFDFF;" cx="312.889" cy="284.444" r="28.444"/>
<path style="fill:#FF0C38;" d="M210.893,398.222H256V170.667H132.741V56.889H256V0H104.296C88.587,0,75.852,12.736,75.852,28.444
	v170.667v170.667c0,15.709,12.736,28.444,28.444,28.444h26.144h40.226H210.893z M199.111,256c15.709,0,28.444,12.734,28.444,28.444
	c0,15.709-12.736,28.444-28.444,28.444s-28.444-12.736-28.444-28.444C170.666,268.734,183.402,256,199.111,256z"/>
</svg>